# xmcd
#
# Track frame offsets:
#   150
#   22500
#   49814
#   106454
#   145880
#   163132
#   182020
#   207325
#
# Disc length: 3038 seconds
#
# Revision: 0
# Processed by: cddbd v1.5PL3 Copyright (c) Steve Scherf et al.
# Submitted via: Media_Universe 3.0
#
DISCID=670bdc08
DTITLE=JACQUES MICHELIN - MAWA
DYEAR=1900
DGENRE=ANTILLAISE
TTITLE0=EXPERIENCE
TTITLE1=REMEMBER RYCO
TTITLE2=UN COIN DU FEU
TTITLE3=LA BELLE EPOQUE
TTITLE4=QUADRILLE SIRI
TTITLE5=FLO
TTITLE6=FLEUR SAUVAGE § RENCONTRE 
TTITLE7=AIMER
EXTD=
EXTT0=
EXTT1=
EXTT2=
EXTT3=
EXTT4=
EXTT5=
EXTT6=
EXTT7=
PLAYORDER=
